# xmcd
#
# Track frame offsets:
# 150
# 12300
# 23935
# 34465
# 47987
# 60790
# 76030
# 90125
# 116355
# 129237
# 143262
# 152555
# 164020
# 183495
# 202125
# 222415
#
# Disc length: 3144 seconds
#
#
# Revision: 0
# Processed by: cddbd v1.4PL0 Copyright (c) Steve Scherf et al.
# Submitted via: FreeRIP 2.40 
#
DISCID=ca0c4610
DTITLE=Various Artist - 16 Original World Hits (Rhythm and Soul)
DYEAR=1900
DGENRE=
TTITLE0=The Shirelles-Will You Love Me Tomorrow
TTITLE1=Arthur Alexander-You Better Move On
TTITLE2=Etta James-Tell Mama
TTITLE3=Billy Stewart-Secret Love
TTITLE4=Fontella Bass-Rescue Me
TTITLE5=The Dells-Love Is Blue
TTITLE6=The Four Tops-Ain't No Woman
TTITLE7=Solomon Burke-You And Your Baby Bues
TTITLE8=Ramsey Lewis-Soul Man
TTITLE9=The Sensations-Let Me In
TTITLE10=Jan Bradley-Mama Didn't Lie
TTITLE11=Curtis Mayfield and The Impressions-Keep On Pushing
TTITLE12=Harold Melvin and The Blues Notes-Reaching For The World
TTITLE13=The Pointer Sisters-Yes We Can Can
TTITLE14=Lamont Dozier-Tryin' To Hold On To My Woman
TTITLE15=Aretha Franklin-Yield No Temptation
EXTD=
EXTT0=
EXTT1=
EXTT2=
EXTT3=
EXTT4=
EXTT5=
EXTT6=
EXTT7=
EXTT8=
EXTT9=
EXTT10=
EXTT11=
EXTT12=
EXTT13=
EXTT14=
EXTT15=
PLAYORDER=
